<svg width="1143" height="540" viewBox="0 0 1143 540" fill="none" xmlns="http://www.w3.org/2000/svg">
<path d="M1058.37 393.179L1042.24 372.947C1033.15 377.345 1020.25 379.691 1005 379.691C943.43 379.691 904.433 334.536 904.433 271.202C904.433 209.334 939.911 162.127 1005 162.127C1070.1 162.127 1105.28 209.334 1105.28 271.202C1105.28 309.906 1091.5 339.521 1067.46 358.873L1095.02 393.179H1058.37ZM1005 342.16C1009.99 342.16 1014.39 341.573 1018.2 340.107L989.171 304.628H1026.12L1041.36 324.86C1052.8 313.718 1059.25 297.005 1059.25 271.202C1059.25 233.084 1042.83 199.658 1005 199.658C966.887 199.658 950.467 233.084 950.467 271.202C950.467 309.027 967.18 342.16 1005 342.16Z" fill="black"/>
<path d="M698.487 374.999V166.818H747.747L830.433 310.493V166.818H875.001V374.999H825.155L743.056 236.31V374.999H698.487Z" fill="black"/>
<path d="M614.59 374.999V166.818H659.158V374.999H614.59Z" fill="black"/>
<path d="M402.697 374.999V166.818H474.534C541.973 166.818 579.798 204.35 579.798 271.202C579.798 337.761 542.56 374.999 476.294 374.999H402.697ZM447.266 337.468H474.534C514.705 337.468 533.763 316.064 533.763 270.909C533.763 225.754 514.705 204.35 474.534 204.35H447.266V337.468Z" fill="black"/>
<g clip-path="url(#clip0_33_14)">
<path d="M313.072 363.926C275.922 320.384 268.5 260.315 290.713 210.134C287.97 210.718 285.118 211.046 282.212 211.046C260.017 211.046 242.027 193.097 242.027 170.952C242.027 167.541 242.466 164.239 243.252 161.065C189.448 184.961 124.18 174.892 80.047 130.857L45 165.826C99.4261 220.13 102.077 306.466 53.0442 363.926C50.4847 366.917 47.8337 369.854 45.0183 372.681L80.0653 407.65C137.307 350.537 230.144 350.537 287.385 407.65L321.774 373.32C321.555 373.101 321.335 372.9 321.116 372.7C318.282 369.872 315.631 366.935 313.072 363.944V363.926ZM239.029 312.905C239.029 319.435 233.672 324.78 227.127 324.78H139.629C133.084 324.78 127.727 319.435 127.727 312.905V225.602C127.727 219.072 133.084 213.727 139.629 213.727H227.127C233.672 213.727 239.029 219.072 239.029 225.602V312.905Z" fill="black"/>
<path d="M288.025 198.204C306.673 198.204 321.774 183.119 321.774 164.531C321.774 145.943 306.673 130.857 288.025 130.857C269.377 130.857 254.276 145.943 254.276 164.531C254.276 183.119 269.377 198.204 288.025 198.204Z" fill="black"/>
</g>
<defs>
<clipPath id="clip0_33_14">
<rect width="276.774" height="276.774" fill="white" transform="translate(45 130.857)"/>
</clipPath>
</defs>
</svg>
