<svg xmlns="http://www.w3.org/2000/svg" viewBox="0 0 720 198"><defs><style>.cls-1{fill:#0089c1;}.cls-2{fill:#004f72;}</style></defs><g id="Layer_2" data-name="Layer 2"><g id="Layer_1-2" data-name="Layer 1"><path class="cls-1" d="M132.24,118.44c0-24.71,18.3-42.23,43.17-42.23s43,17.52,43,42.23-18.15,42.39-43,42.39S132.24,143.16,132.24,118.44Zm71,0c0-17.67-11.89-29.09-27.85-29.09s-28,11.42-28,29.09,12,29.25,28,29.25S203.26,136.12,203.26,118.44Z"/><path class="cls-1" d="M281.27,76.21V90.76a25.93,25.93,0,0,0-3.44-.16c-16.11,0-26.12,9.86-26.12,28v41.29h-15V77h14.39V90.91C256.4,81.22,266.72,76.21,281.27,76.21Z"/><path class="cls-1" d="M371.64,123.45H304.38c1.88,14.55,13.61,24.24,30,24.24,9.7,0,17.83-3.28,23.93-10l8.29,9.7c-7.5,8.76-18.92,13.45-32.69,13.45-26.74,0-44.57-17.67-44.57-42.39,0-24.55,17.67-42.23,41.6-42.23s41,17.21,41,42.7C372,120.16,371.8,122,371.64,123.45Zm-67.26-10.79h53.18C356,98.74,345.52,88.88,331,88.88,316.58,88.88,306,98.58,304.38,112.66Z"/><path class="cls-2" d="M404.15,64H366.61V50.4h90.57V64H419.64v95.88H404.15Z"/><path class="cls-2" d="M534.1,123.45H466.84c1.87,14.55,13.61,24.24,30,24.24,9.7,0,17.83-3.28,23.93-10l8.29,9.7c-7.51,8.76-18.93,13.45-32.69,13.45-26.75,0-44.58-17.67-44.58-42.39,0-24.55,17.68-42.23,41.61-42.23s41,17.21,41,42.7C534.41,120.16,534.25,122,534.1,123.45Zm-67.26-10.79H520c-1.57-13.92-12-23.78-26.59-23.78C479,88.88,468.4,98.58,466.84,112.66Z"/><path class="cls-2" d="M548.76,118.44c0-24.71,18.3-42.23,43.8-42.23,14.86,0,27.21,6.1,33.78,17.68l-11.41,7.35c-5.32-8.14-13.46-11.89-22.53-11.89-16.26,0-28.46,11.42-28.46,29.09,0,18,12.2,29.25,28.46,29.25,9.07,0,17.21-3.75,22.53-11.88L626.34,143c-6.57,11.57-18.92,17.83-33.78,17.83C567.06,160.83,548.76,143.16,548.76,118.44Z"/><path class="cls-2" d="M720,112.19v47.7H705v-46c0-16.27-8.13-24.25-22.36-24.25-16,0-26.28,9.54-26.28,27.53v42.7h-15V43.83h15v44.9c6.26-8,16.58-12.52,29.25-12.52C705.77,76.21,720,87.79,720,112.19Z"/><path class="cls-2" d="M69.8,86.49,161.8,0h0C117.63,0,93.38,9.85,50.66,45.24L2.31,90.69H59.19A15.49,15.49,0,0,0,69.8,86.49Z"/><path class="cls-1" d="M2.31,107.31l92.45,86.91A13.91,13.91,0,0,0,104.3,198h58.52l-92-86.49a15.47,15.47,0,0,0-10.6-4.2Z"/><path class="cls-1" d="M39.22,33.2A184.29,184.29,0,0,1,63.65,13.86H7.91A7.91,7.91,0,0,0,0,21.77V70.06Z"/><path class="cls-2" d="M0,127.74v34a4.67,4.67,0,0,0,4.67,4.68H39.74Z"/></g></g></svg>